<?xml version="1.0" encoding="UTF-8" standalone="no"?>
<!-- Created with Inkscape (http://www.inkscape.org/) -->

<svg
   xmlns:dc="http://purl.org/dc/elements/1.1/"
   xmlns:cc="http://creativecommons.org/ns#"
   xmlns:rdf="http://www.w3.org/1999/02/22-rdf-syntax-ns#"
   xmlns:svg="http://www.w3.org/2000/svg"
   xmlns="http://www.w3.org/2000/svg"
   xmlns:sodipodi="http://sodipodi.sourceforge.net/DTD/sodipodi-0.dtd"
   xmlns:inkscape="http://www.inkscape.org/namespaces/inkscape"
   width="595.27393"
   height="68.706726"
   id="svg2"
   version="1.1"
   inkscape:version="0.48.4 r9939"
   sodipodi:docname="Zeichnung.svg">
  <defs
     id="defs4" />
  <sodipodi:namedview
     id="base"
     pagecolor="#ffffff"
     bordercolor="#666666"
     borderopacity="1.0"
     inkscape:pageopacity="0.0"
     inkscape:pageshadow="2"
     inkscape:zoom="1.979899"
     inkscape:cx="201.60219"
     inkscape:cy="109.44763"
     inkscape:document-units="px"
     inkscape:current-layer="layer1"
     showgrid="false"
     inkscape:window-width="1920"
     inkscape:window-height="1018"
     inkscape:window-x="0"
     inkscape:window-y="27"
     inkscape:window-maximized="1"
     fit-margin-top="0"
     fit-margin-left="0"
     fit-margin-right="0"
     fit-margin-bottom="0" />
  <metadata
     id="metadata7">
    <rdf:RDF>
      <cc:Work
         rdf:about="">
        <dc:format>image/svg+xml</dc:format>
        <dc:type
           rdf:resource="http://purl.org/dc/dcmitype/StillImage" />
        <dc:title></dc:title>
      </cc:Work>
    </rdf:RDF>
  </metadata>
  <g
     inkscape:label="Ebene 1"
     inkscape:groupmode="layer"
     id="layer1"
     transform="translate(-70.679615,-930.37108)">
    <g
       id="g3112"
       transform="translate(-55.605445,667.0858)">
      <path
         style="fill:#ffffff"
         inkscape:connector-curvature="0"
         d="m 373.796,284.956 c 1.833,0 3.546,0.257 5.091,0.764 1.33,0.428 2.65,0.935 3.931,1.509 l 2.863,-7.379 c -3.729,-1.688 -7.688,-2.544 -11.777,-2.544 -3.904,0 -7.34,0.84 -10.211,2.497 -2.864,1.649 -5.086,4.041 -6.605,7.106 -1.542,3.094 -2.324,6.746 -2.324,10.857 0,6.557 1.599,11.627 4.754,15.071 3.149,3.407 7.756,5.137 13.692,5.137 4.007,0 7.665,-0.682 10.878,-2.027 v -7.823 c -1.454,0.569 -2.839,1.045 -4.208,1.443 -1.775,0.528 -3.615,0.796 -5.466,0.796 -6.439,0 -9.704,-4.219 -9.704,-12.539 0,-3.918 0.785,-7.055 2.333,-9.323 1.608,-2.353 3.88,-3.545 6.753,-3.545 z"
         id="path3114" />
      <polygon
         style="fill:#ffffff"
         points="418.674,285.344 418.674,277.889 395.796,277.889 395.796,317.411 418.674,317.411 418.674,309.829 405.422,309.829 405.422,300.664 417.688,300.664 417.688,293.208 405.422,293.208 405.422,285.344 "
         id="polygon3116" />
      <path
         style="fill:#ffffff"
         inkscape:connector-curvature="0"
         d="m 446.158,310.188 c -2.322,0 -4.116,-0.747 -5.332,-2.221 -1.189,-1.43 -1.794,-3.703 -1.794,-6.755 v -23.314 h -9.688 v 24.179 c 0,5.145 1.438,9.119 4.272,11.812 2.841,2.712 7.003,4.086 12.373,4.086 5.495,0 9.743,-1.418 12.624,-4.216 2.878,-2.781 4.336,-6.796 4.336,-11.935 v -23.926 h -9.635 v 23.266 c 0,3.145 -0.548,5.368 -1.673,6.801 -1.162,1.475 -3.006,2.223 -5.483,2.223 z"
         id="path3118" />
      <path
         style="fill:#ffffff"
         inkscape:connector-curvature="0"
         d="m 497.551,287.121 2.862,-7.207 c -4.097,-1.731 -8.146,-2.608 -12.047,-2.608 -4.609,0 -8.27,1.016 -10.875,3.018 -2.589,1.987 -3.848,4.688 -3.848,8.259 0,1.898 0.307,3.566 0.912,4.959 0.59,1.36 1.523,2.589 2.773,3.653 1.304,1.105 3.271,2.259 5.847,3.427 2.948,1.323 4.808,2.225 5.523,2.678 0.756,0.472 1.324,0.962 1.685,1.454 0.394,0.528 0.595,1.167 0.595,1.896 0,1.124 -0.495,2.082 -1.433,2.77 -0.893,0.667 -2.217,0.993 -4.043,0.993 -1.933,0 -4.104,-0.315 -6.454,-0.937 -1.918,-0.507 -3.826,-1.205 -5.687,-2.08 v 8.266 c 1.805,0.827 3.554,1.417 5.206,1.755 1.811,0.371 4.07,0.559 6.716,0.559 3.159,0 5.935,-0.53 8.249,-1.577 2.292,-1.038 4.067,-2.497 5.275,-4.334 1.2,-1.845 1.81,-3.988 1.81,-6.365 0,-2.595 -0.644,-4.766 -1.914,-6.454 -1.299,-1.717 -3.682,-3.36 -7.081,-4.885 -3.761,-1.719 -6.017,-2.883 -6.899,-3.561 -1.009,-0.763 -1.522,-1.68 -1.522,-2.722 0,-0.964 0.417,-1.786 1.24,-2.441 0.815,-0.612 1.984,-0.903 3.59,-0.903 2.707,-0.002 5.907,0.802 9.52,2.387 z"
         id="path3120" />
      <path
         style="fill:#ffffff"
         inkscape:connector-curvature="0"
         d="m 549.894,306.975 -8.549,-29.086 H 527.86 v 39.522 h 8.374 v -17.072 c 0,-2.826 -0.197,-6.743 -0.585,-11.642 l -0.062,-0.771 h 1.568 l 8.374,29.484 h 9.448 l 8.263,-29.436 h 1.55 l -0.039,0.75 c -0.246,4.795 -0.359,7.296 -0.378,8.364 -0.028,1.125 -0.049,2.158 -0.049,3.084 v 17.237 h 8.742 v -39.522 h -13.511 l -8.373,29.086 h -1.288 z"
         id="path3122" />
      <polygon
         style="fill:#ffffff"
         points="608.494,285.344 608.494,277.889 585.616,277.889 585.616,317.411 608.494,317.411 608.494,309.829 595.242,309.829 595.242,300.664 607.509,300.664 607.509,293.208 595.242,293.208 595.242,285.344 "
         id="polygon3124" />
      <path
         style="fill:#ffffff"
         inkscape:connector-curvature="0"
         d="m 647.581,282.743 c -3.427,-3.215 -8.389,-4.845 -14.743,-4.845 h -13.451 v 39.523 h 12.528 c 6.59,0 11.758,-1.8 15.363,-5.349 3.608,-3.538 5.438,-8.682 5.438,-15.287 0,-6.111 -1.727,-10.836 -5.135,-14.042 z m -7.435,23.829 c -1.698,2.122 -4.372,3.199 -7.944,3.199 h -3.179 v -24.368 h 3.936 c 3.229,0 5.688,1.002 7.311,2.979 1.585,1.928 2.389,4.887 2.389,8.792 -10e-4,4.163 -0.846,7.324 -2.513,9.398 z"
         id="path3126" />
      <rect
         style="fill:#ffffff"
         x="663.77301"
         y="277.89801"
         width="9.6859999"
         height="39.522999"
         id="rect3128" />
      <path
         style="fill:#ffffff"
         inkscape:connector-curvature="0"
         d="m 708.979,309.742 2.015,7.669 h 10.565 l -13.063,-39.688 h -13.718 l -12.895,39.688 h 10.626 l 2.068,-7.669 h 14.402 z m -12.25,-8.547 c 1.64,-6.185 2.775,-10.638 3.285,-12.878 0.466,-2.041 0.808,-3.661 0.988,-4.685 l 1.405,-0.004 c 0.184,1.011 0.573,2.714 1.155,5.063 0.649,2.618 1.111,4.399 1.494,5.775 l 1.994,7.624 h -10.56 l 0.239,-0.895 z"
         id="path3130" />
    </g>
    <g
       id="g3132"
       transform="translate(-55.605445,667.0858)">
      <path
         style="fill:#ffffff"
         inkscape:connector-curvature="0"
         d="m 314.371,313.857 c -2.017,-5.963 -7.9,-5.803 -11.398,-4.148 -3,1.415 -5.149,1.285 -7.095,0.815 -6.987,-1.692 -13.22,-7.021 -19.71,-9.926 -11.472,-5.13 -19.757,-5.71 -32.239,4.318 -3.159,2.534 -7.434,6.586 -12.49,5.244 -8.371,-2.219 -20.459,-25.815 -43.852,-16.43 -11.086,4.445 -17.771,14.06 -26.521,21.743 -2.894,2.543 -8.83,6.723 -14.146,4.097 -8.917,-4.404 -6.705,-14.536 -4.765,-18.903 2.301,-5.178 6.747,-9.006 11.394,-12.056 4.737,-3.104 10.675,-5.455 13.943,-10.324 2.512,-3.738 2.496,-8.714 -0.901,-11.829 -8.498,-7.779 -21.99,0.398 -28.392,6.872 -8.506,8.601 -14.216,25.546 -11.01,37.743 2.868,10.915 13.349,20.919 25.59,20.919 18.659,0 34.074,-21.997 45.945,-22.616 8.777,-0.456 13.945,3.548 18.683,7.55 8.908,7.526 19.112,13.563 28.865,5.933 6.276,-4.911 11.711,-14.698 20.051,-16.159 9.654,-1.74 16.822,7.339 24.309,11.967 4.604,2.842 9.638,5.212 15.11,5.589 5.936,0.411 10.395,-5.199 8.629,-10.399"
         id="path3134" />
    </g>
  </g>
</svg>
