<?xml version="1.0" encoding="utf-8"?>
<!-- Generator: Adobe Illustrator 14.0.0, SVG Export Plug-In . SVG Version: 6.00 Build 43363)  -->
<!DOCTYPE svg PUBLIC "-//W3C//DTD SVG 1.0//EN" "http://www.w3.org/TR/2001/REC-SVG-20010904/DTD/svg10.dtd">
<svg version="1.0" id="Layer_1" xmlns="http://www.w3.org/2000/svg" xmlns:xlink="http://www.w3.org/1999/xlink" x="0px" y="0px"
	 width="595.278px" height="310.233px" viewBox="123.305 142.132 595.278 310.233"
	 enable-background="new 123.305 142.132 595.278 310.233" xml:space="preserve">
<g>
	<g>
		<path fill="#FFFFFF" d="M203.8,406.878c2.568,0,4.97,0.359,7.136,1.069c1.862,0.6,3.713,1.311,5.508,2.114l4.012-10.34
			c-5.225-2.367-10.772-3.565-16.504-3.565c-5.472,0-10.286,1.178-14.31,3.499c-4.015,2.313-7.128,5.662-9.258,9.958
			c-2.16,4.336-3.256,9.454-3.256,15.216c0,9.188,2.241,16.294,6.662,21.119c4.412,4.775,10.869,7.199,19.188,7.199
			c5.615,0,10.74-0.956,15.245-2.842v-10.963c-2.037,0.799-3.979,1.465-5.897,2.022c-2.487,0.739-5.065,1.115-7.66,1.115
			c-9.022,0-13.599-5.912-13.599-17.571c0-5.49,1.1-9.888,3.27-13.065C196.589,408.549,199.772,406.878,203.8,406.878z"/>
		<polygon fill="#FFFFFF" points="266.688,441.734 248.118,441.734 248.118,428.891 265.308,428.891 265.308,418.442 
			248.118,418.442 248.118,407.422 266.688,407.422 266.688,396.974 234.629,396.974 234.629,452.359 266.688,452.359 		"/>
		<path fill="#FFFFFF" d="M305.204,442.237c-3.255,0-5.769-1.047-7.472-3.111c-1.667-2.005-2.516-5.189-2.516-9.467v-32.672H281.64
			v33.883c0,7.21,2.015,12.778,5.986,16.555c3.98,3.799,9.813,5.725,17.338,5.725c7.702,0,13.654-1.988,17.691-5.908
			c4.033-3.896,6.076-9.522,6.076-16.724v-33.529H315.23v32.604c0,4.404-0.768,7.521-2.344,9.528
			C311.26,441.189,308.675,442.237,305.204,442.237z"/>
		<path fill="#FFFFFF" d="M377.223,409.911l4.011-10.1c-5.742-2.426-11.416-3.655-16.882-3.655c-6.46,0-11.588,1.423-15.24,4.229
			c-3.628,2.784-5.392,6.57-5.392,11.573c0,2.659,0.43,4.997,1.276,6.948c0.828,1.906,2.135,3.628,3.889,5.119
			c1.826,1.549,4.584,3.166,8.192,4.803c4.132,1.854,6.737,3.117,7.74,3.752c1.06,0.662,1.855,1.349,2.36,2.037
			c0.551,0.74,0.833,1.638,0.833,2.659c0,1.575-0.694,2.917-2.008,3.881c-1.251,0.936-3.106,1.393-5.666,1.393
			c-2.709,0-5.752-0.441-9.045-1.313c-2.688-0.711-5.36-1.688-7.969-2.914v11.582c2.529,1.159,4.98,1.986,7.296,2.46
			c2.538,0.52,5.704,0.782,9.411,0.782c4.427,0,8.316-0.744,11.561-2.211c3.212-1.454,5.699-3.498,7.394-6.072
			c1.682-2.586,2.535-5.59,2.535-8.92c0-3.637-0.902-6.68-2.684-9.045c-1.818-2.405-5.158-4.709-9.923-6.846
			c-5.27-2.408-8.431-4.039-9.668-4.988c-1.414-1.069-2.133-2.354-2.133-3.813c0-1.353,0.584-2.504,1.737-3.423
			c1.142-0.856,2.779-1.266,5.029-1.266C367.676,406.564,372.16,407.69,377.223,409.911z"/>
		<path fill="#FFFFFF" d="M450.574,437.734l-11.979-40.761h-18.897v55.386h11.734v-23.924c0-3.962-0.275-9.451-0.82-16.315
			l-0.085-1.079h2.198l11.734,41.318h13.24l11.578-41.25h2.172l-0.054,1.051c-0.346,6.72-0.504,10.226-0.529,11.722
			c-0.041,1.578-0.067,3.023-0.067,4.321v24.156h12.25v-55.386h-18.934l-11.733,40.761H450.574L450.574,437.734z"/>
		<polygon fill="#FFFFFF" points="532.692,441.734 514.122,441.734 514.122,428.891 531.313,428.891 531.313,418.442 
			514.122,418.442 514.122,407.422 532.692,407.422 532.692,396.974 500.635,396.974 500.635,452.359 532.692,452.359 		"/>
		<path fill="#FFFFFF" d="M587.469,403.776c-4.805-4.505-11.756-6.789-20.661-6.789h-18.851v55.386h17.559
			c9.232,0,16.477-2.521,21.529-7.493c5.056-4.959,7.618-12.166,7.618-21.425C594.663,414.891,592.242,408.27,587.469,403.776z
			 M577.051,437.17c-2.383,2.974-6.128,4.481-11.133,4.481h-4.456v-34.147h5.517c4.523,0,7.97,1.403,10.243,4.175
			c2.221,2.701,3.348,6.847,3.348,12.321C580.568,429.831,579.385,434.264,577.051,437.17z"/>
		<rect x="610.159" y="396.987" fill="#FFFFFF" width="13.571" height="55.386"/>
		<path fill="#FFFFFF" d="M673.508,441.611l2.821,10.748h14.807l-18.308-55.617h-19.222l-18.071,55.617h14.893l2.897-10.748H673.508
			z M656.341,429.635c2.298-8.667,3.89-14.907,4.604-18.047c0.651-2.86,1.131-5.131,1.385-6.564l1.969-0.006
			c0.259,1.416,0.804,3.804,1.62,7.096c0.909,3.669,1.556,6.166,2.094,8.094l2.795,10.685h-14.799L656.341,429.635z"/>
	</g>
	<g>
		<path fill="#FFFFFF" d="M717.35,301.852c-6.371-18.833-24.951-18.327-35.998-13.104c-9.475,4.471-16.263,4.061-22.408,2.575
			c-22.065-5.345-41.754-22.175-62.251-31.349c-36.229-16.201-62.397-18.033-101.821,13.637
			c-9.978,8.006-23.479,20.802-39.446,16.563c-26.438-7.006-64.617-81.531-138.501-51.891
			c-35.014,14.04-56.127,44.405-83.764,68.673c-9.141,8.031-27.888,21.232-44.68,12.939c-28.161-13.91-21.175-45.91-15.05-59.704
			c7.267-16.352,21.308-28.443,35.983-38.076c14.96-9.803,33.715-17.227,44.037-32.606c7.934-11.806,7.882-27.521-2.847-37.358
			c-26.838-24.567-69.453,1.259-89.671,21.704c-26.865,27.166-44.898,80.686-34.774,119.204c9.059,34.475,42.16,66.07,80.821,66.07
			c58.933,0,107.618-69.476,145.108-71.43c27.721-1.442,44.045,11.204,59.009,23.844c28.134,23.77,60.362,42.834,91.165,18.737
			c19.821-15.512,36.986-46.423,63.328-51.037c30.492-5.496,53.129,23.18,76.773,37.794c14.54,8.978,30.44,16.462,47.723,17.65
			C708.846,335.99,722.928,318.271,717.35,301.852"/>
	</g>
</g>
</svg>
