<?xml version="1.0" encoding="UTF-8" standalone="no"?>
<!-- Created with Inkscape (http://www.inkscape.org/) -->

<svg
   xmlns:dc="http://purl.org/dc/elements/1.1/"
   xmlns:cc="http://creativecommons.org/ns#"
   xmlns:rdf="http://www.w3.org/1999/02/22-rdf-syntax-ns#"
   xmlns:svg="http://www.w3.org/2000/svg"
   xmlns="http://www.w3.org/2000/svg"
   xmlns:sodipodi="http://sodipodi.sourceforge.net/DTD/sodipodi-0.dtd"
   xmlns:inkscape="http://www.inkscape.org/namespaces/inkscape"
   width="595.27789"
   height="311.01706"
   id="svg2"
   version="1.1"
   inkscape:version="0.48.4 r9939"
   sodipodi:docname="CM_Logo_Inline_White_Transparent.svg">
  <defs
     id="defs4" />
  <sodipodi:namedview
     id="base"
     pagecolor="#ffffff"
     bordercolor="#666666"
     borderopacity="1.0"
     inkscape:pageopacity="0.0"
     inkscape:pageshadow="2"
     inkscape:zoom="1.979899"
     inkscape:cx="333.59581"
     inkscape:cy="135.15155"
     inkscape:document-units="px"
     inkscape:current-layer="layer1"
     showgrid="false"
     inkscape:window-width="1920"
     inkscape:window-height="1018"
     inkscape:window-x="0"
     inkscape:window-y="27"
     inkscape:window-maximized="1"
     fit-margin-top="0"
     fit-margin-left="0"
     fit-margin-right="0"
     fit-margin-bottom="0" />
  <metadata
     id="metadata7">
    <rdf:RDF>
      <cc:Work
         rdf:about="">
        <dc:format>image/svg+xml</dc:format>
        <dc:type
           rdf:resource="http://purl.org/dc/dcmitype/StillImage" />
        <dc:title></dc:title>
      </cc:Work>
    </rdf:RDF>
  </metadata>
  <g
     inkscape:label="Ebene 1"
     inkscape:groupmode="layer"
     id="layer1"
     transform="translate(-266.50018,-794.57688)">
    <g
       id="g3255"
       transform="translate(143.19446,652.44493)">
      <g
         id="g3225">
        <path
           id="path3227"
           d="m 203.8,406.878 c 2.568,0 4.969,0.36 7.135,1.07 1.863,0.599 3.713,1.31 5.508,2.114 l 4.012,-10.34 c -5.225,-2.367 -10.773,-3.565 -16.504,-3.565 -5.472,0 -10.286,1.177 -14.31,3.499 -4.014,2.312 -7.128,5.662 -9.257,9.958 -2.161,4.336 -3.256,9.454 -3.256,15.216 0,9.188 2.241,16.294 6.662,21.119 4.412,4.775 10.869,7.199 19.187,7.199 5.616,0 10.741,-0.956 15.245,-2.842 v -10.963 c -2.037,0.799 -3.979,1.465 -5.897,2.023 -2.487,0.739 -5.065,1.115 -7.66,1.115 -9.023,0 -13.599,-5.912 -13.599,-17.571 0,-5.491 1.1,-9.888 3.27,-13.066 2.253,-3.295 5.436,-4.966 9.464,-4.966 z"
           inkscape:connector-curvature="0"
           style="fill:#004163" />
        <polygon
           id="polygon3229"
           points="248.118,418.442 248.118,407.422 266.688,407.422 266.688,396.974 234.629,396.974 234.629,452.359 266.688,452.359 266.688,441.734 248.118,441.734 248.118,428.891 265.308,428.891 265.308,418.442 "
           style="fill:#004163" />
        <path
           id="path3231"
           d="m 305.204,442.237 c -3.255,0 -5.769,-1.047 -7.472,-3.112 -1.667,-2.004 -2.515,-5.189 -2.515,-9.466 V 396.987 H 281.64 v 33.883 c 0,7.21 2.015,12.778 5.987,16.554 3.98,3.799 9.813,5.725 17.338,5.725 7.702,0 13.654,-1.988 17.691,-5.908 4.033,-3.896 6.076,-9.523 6.076,-16.724 V 396.988 H 315.23 v 32.604 c 0,4.405 -0.767,7.522 -2.344,9.529 -1.626,2.068 -4.211,3.116 -7.682,3.116 z"
           inkscape:connector-curvature="0"
           style="fill:#004163" />
        <path
           id="path3233"
           d="m 377.223,409.912 4.011,-10.1 c -5.742,-2.426 -11.416,-3.655 -16.882,-3.655 -6.46,0 -11.588,1.423 -15.24,4.229 -3.628,2.784 -5.392,6.571 -5.392,11.573 0,2.66 0.43,4.998 1.277,6.949 0.828,1.906 2.135,3.628 3.888,5.119 1.827,1.549 4.584,3.166 8.193,4.803 4.132,1.854 6.737,3.117 7.74,3.752 1.06,0.662 1.856,1.348 2.36,2.037 0.551,0.74 0.833,1.637 0.833,2.659 0,1.575 -0.694,2.917 -2.007,3.881 -1.251,0.935 -3.107,1.392 -5.666,1.392 -2.709,0 -5.752,-0.441 -9.045,-1.313 -2.688,-0.711 -5.361,-1.689 -7.969,-2.914 v 11.582 c 2.529,1.159 4.98,1.986 7.296,2.46 2.538,0.519 5.704,0.782 9.411,0.782 4.427,0 8.316,-0.744 11.561,-2.211 3.211,-1.454 5.699,-3.498 7.393,-6.072 1.682,-2.586 2.535,-5.59 2.535,-8.92 0,-3.637 -0.902,-6.68 -2.683,-9.045 -1.819,-2.405 -5.159,-4.709 -9.923,-6.846 -5.27,-2.408 -8.431,-4.039 -9.668,-4.988 -1.414,-1.069 -2.133,-2.354 -2.133,-3.814 0,-1.352 0.584,-2.503 1.737,-3.422 1.142,-0.857 2.78,-1.266 5.03,-1.266 3.796,0 8.28,1.126 13.343,3.348 z"
           inkscape:connector-curvature="0"
           style="fill:#004163" />
        <path
           id="path3235"
           d="m 450.574,437.734 -11.98,-40.761 h -18.897 v 55.386 h 11.734 v -23.924 c 0,-3.962 -0.275,-9.451 -0.82,-16.315 l -0.085,-1.079 h 2.198 l 11.735,41.318 h 13.24 l 11.578,-41.25 h 2.172 l -0.054,1.051 c -0.346,6.719 -0.504,10.225 -0.529,11.721 -0.041,1.578 -0.068,3.024 -0.068,4.322 v 24.156 h 12.25 v -55.386 h -18.933 l -11.734,40.761 h -1.807 z"
           inkscape:connector-curvature="0"
           style="fill:#004163" />
        <polygon
           id="polygon3237"
           points="514.122,418.442 514.122,407.422 532.692,407.422 532.692,396.974 500.634,396.974 500.634,452.359 532.692,452.359 532.692,441.734 514.122,441.734 514.122,428.891 531.313,428.891 531.313,418.442 "
           style="fill:#004163" />
        <path
           id="path3239"
           d="m 587.468,403.776 c -4.804,-4.505 -11.756,-6.789 -20.661,-6.789 h -18.85 v 55.386 h 17.558 c 9.233,0 16.477,-2.521 21.529,-7.494 5.056,-4.959 7.619,-12.166 7.619,-21.424 0,-8.564 -2.421,-15.185 -7.195,-19.679 z M 577.05,437.17 c -2.382,2.974 -6.128,4.482 -11.133,4.482 h -4.456 v -34.148 h 5.517 c 4.523,0 7.97,1.404 10.243,4.175 2.221,2.701 3.348,6.847 3.348,12.321 -10e-4,5.832 -1.184,10.264 -3.519,13.17 z"
           inkscape:connector-curvature="0"
           style="fill:#004163" />
        <rect
           id="rect3241"
           height="55.386002"
           width="13.571"
           y="396.987"
           x="610.159"
           style="fill:#004163" />
        <path
           id="path3243"
           d="m 673.507,441.611 2.822,10.748 h 14.806 l -18.307,-55.617 h -19.222 l -18.071,55.617 h 14.892 l 2.898,-10.748 h 20.182 z M 656.34,429.635 c 2.298,-8.667 3.89,-14.907 4.604,-18.047 0.651,-2.86 1.131,-5.13 1.385,-6.564 l 1.968,-0.006 c 0.259,1.416 0.804,3.804 1.62,7.096 0.91,3.669 1.556,6.166 2.094,8.094 l 2.795,10.684 h -14.799 l 0.333,-1.257 z"
           inkscape:connector-curvature="0"
           style="fill:#004163" />
      </g>
      <g
         id="g3245">
        <path
           id="path3247"
           d="m 717.35,301.852 c -6.371,-18.833 -24.951,-18.327 -35.998,-13.104 -9.475,4.471 -16.263,4.061 -22.408,2.576 -22.066,-5.345 -41.754,-22.175 -62.251,-31.349 -36.23,-16.201 -62.398,-18.033 -101.821,13.637 -9.978,8.005 -23.479,20.801 -39.447,16.563 -26.438,-7.006 -64.617,-81.531 -138.5,-51.891 -35.014,14.041 -56.127,44.406 -83.764,68.674 -9.141,8.031 -27.888,21.232 -44.68,12.939 -28.161,-13.91 -21.175,-45.91 -15.05,-59.704 7.267,-16.352 21.308,-28.444 35.984,-38.076 14.96,-9.803 33.715,-17.227 44.037,-32.607 7.933,-11.806 7.882,-27.521 -2.847,-37.358 -26.838,-24.568 -69.453,1.258 -89.671,21.704 -26.865,27.166 -44.898,80.685 -34.774,119.204 9.058,34.475 42.16,66.07 80.821,66.07 58.933,0 107.618,-69.475 145.109,-71.43 27.72,-1.442 44.044,11.205 59.008,23.844 28.134,23.77 60.362,42.834 91.165,18.738 19.821,-15.512 36.986,-46.423 63.328,-51.038 30.492,-5.496 53.129,23.18 76.774,37.795 14.54,8.977 30.44,16.461 47.722,17.65 18.759,1.301 32.841,-16.418 27.263,-32.837"
           inkscape:connector-curvature="0"
           style="fill:#004163" />
      </g>
    </g>
  </g>
</svg>
